<?xml version="1.0" encoding="UTF-8"?>
<svg id="Camada_1" xmlns="http://www.w3.org/2000/svg" version="1.1" viewBox="0 0 605.79 132.74">
  <!-- Generator: Adobe Illustrator 30.0.0, SVG Export Plug-In . SVG Version: 2.1.1 Build 123)  -->
  <defs>
    <style>
      .st0 {
        fill: #fff;
      }

      .st1 {
        fill: #00e67a;
      }

      .st2 {
        fill: #f96500;
      }
    </style>
  </defs>
  <g>
    <path class="st0" d="M220.41,79.98c-1.78.11-3.86.08-6.21-.08-2.36-.16-4.43-.48-6.21-.95-1.78-.47-3.61-1.23-5.47-2.3-1.87-1.07-3.4-2.39-4.61-3.95s-2.19-3.58-2.96-6.05-1.15-5.29-1.15-8.48c0-12.29,4.99-19.67,14.98-22.14,5.16-1.32,12.43-1.15,21.81.49,2.25.6,3.84,1.22,4.77,1.85.93.63,1.4,1.69,1.4,3.17v33.99c.05.06.08.11.08.16,1.15,3.13,1.52,5.88,1.11,8.27s-1.29,4.44-2.63,6.17c-1.35,1.73-3.18,3.14-5.51,4.24s-4.83,1.91-7.49,2.43-5.5.78-8.52.78c-2.74,0-5.14-.1-7.2-.29s-3.59-.41-4.61-.66-1.84-.52-2.47-.82-.99-.52-1.07-.66c-.08-.14-.15-.23-.21-.29,0-4.66.7-7.39,2.1-8.19,1.4-.8,4.95-.92,10.66-.37,1.21.11,2.14.19,2.8.25,4.61,0,8.15-.65,10.62-1.93,2.47-1.29,3.15-3,2.06-5.14-2.25.22-4.27.38-6.05.49h-.02ZM224.08,46.4c-.71,0-1.73,0-3.04-.04-1.32-.03-2.35-.05-3.09-.08-.74-.03-1.69,0-2.84.08s-2.07.23-2.76.45c-.69.22-1.44.55-2.26.99-.82.44-1.45.99-1.89,1.65s-.81,1.51-1.11,2.55-.45,2.25-.45,3.62c0,2.36.03,4.03.08,5.02s.25,2.18.58,3.58c.33,1.4.85,2.33,1.56,2.8.71.47,1.74.93,3.09,1.4,1.34.47,3.03.65,5.06.53,2.03-.11,4.55-.36,7.57-.74v-21.81h-.5Z"/>
    <path class="st0" d="M261.19,68.66c1.7.85,3.85,1.29,6.46,1.32s5.16-.08,7.65-.33c2.5-.25,4.86-.53,7.08-.86s3.5-.49,3.83-.49c.22,4.77-.73,8.15-2.84,10.12-2.11,1.98-6.35,2.96-12.71,2.96-8.78,0-15.22-1.78-19.34-5.35-4.11-3.57-6.17-9.74-6.17-18.52,0-4.39.56-8.11,1.69-11.15,1.12-3.04,2.77-5.36,4.94-6.95s4.58-2.72,7.24-3.37c2.66-.66,5.77-.99,9.34-.99,6.8,0,11.81,1.44,15.02,4.32s4.81,7.48,4.81,13.78c0,2.41-.47,4.35-1.4,5.8s-2.15,2.43-3.66,2.92c-1.51.49-3.32.85-5.43,1.07s-4.2.29-6.25.21c-2.06-.08-4.28,0-6.67.29-2.39.28-4.43.74-6.13,1.4,0,1.7.85,2.98,2.55,3.83h0ZM262.8,54.88c2.11-.22,4.09-.34,5.93-.37s3.47-.41,4.9-1.15,2.11-1.91,2.06-3.5c0-1.43-1.13-2.61-3.37-3.54-3.13-1.32-6.17-1.43-9.13-.33-4.11,1.48-5.76,4.88-4.94,10.2.93-.66,2.45-1.1,4.57-1.32h-.02Z"/>
    <path class="st0" d="M326.78,34.96c-.06.11-.04.69.04,1.73.08,1.04.07,2.04-.04,3-.11.96-.33,1.99-.66,3.09-.33,1.1-1,1.98-2.02,2.63-1.02.66-2.32.99-3.91.99-2.3,0-4.09.08-5.35.25-1.26.16-2.39.58-3.37,1.23-.99.66-1.65,1.59-1.98,2.8-.33,1.21-.49,2.85-.49,4.94v26.33c-.99-.71-2.29-1.28-3.91-1.69s-2.99-.73-4.11-.95c-1.13-.22-2.13-.86-3-1.93-.88-1.07-1.32-2.62-1.32-4.65v-22.06c0-.33.01-.78.04-1.36s.12-1.37.29-2.39c.16-1.01.44-2.03.82-3.04.38-1.01.96-2.07,1.73-3.17.77-1.1,1.7-2.06,2.8-2.88,1.1-.82,2.51-1.51,4.24-2.06,1.73-.55,3.66-.82,5.8-.82h14.4Z"/>
    <path class="st0" d="M343.32,68.66c1.7.85,3.85,1.29,6.46,1.32s5.16-.08,7.65-.33c2.5-.25,4.86-.53,7.08-.86s3.5-.49,3.83-.49c.22,4.77-.73,8.15-2.84,10.12-2.11,1.98-6.35,2.96-12.71,2.96-8.78,0-15.22-1.78-19.34-5.35-4.11-3.57-6.17-9.74-6.17-18.52,0-4.39.56-8.11,1.69-11.15,1.12-3.04,2.77-5.36,4.94-6.95s4.58-2.72,7.24-3.37c2.66-.66,5.77-.99,9.34-.99,6.8,0,11.81,1.44,15.02,4.32s4.81,7.48,4.81,13.78c0,2.41-.47,4.35-1.4,5.8s-2.15,2.43-3.66,2.92c-1.51.49-3.32.85-5.43,1.07s-4.2.29-6.25.21c-2.06-.08-4.28,0-6.67.29-2.39.28-4.43.74-6.13,1.4,0,1.7.85,2.98,2.55,3.83h0ZM344.93,54.88c2.11-.22,4.09-.34,5.93-.37s3.47-.41,4.9-1.15,2.11-1.91,2.06-3.5c0-1.43-1.13-2.61-3.37-3.54-3.13-1.32-6.17-1.43-9.13-.33-4.11,1.48-5.76,4.88-4.94,10.2.93-.66,2.45-1.1,4.57-1.32h-.02Z"/>
    <path class="st0" d="M420.35,50.68v29.96c-1.92.11-3.57.1-4.94-.04s-2.67-.45-3.91-.95c-1.23-.49-2.14-1.3-2.72-2.43-.58-1.12-.84-2.54-.78-4.24v-22.06c-.82-4-4.55-5.6-11.19-4.77-3.46.44-5.46.77-6.01.99.16.93.25,2.03.25,3.29v22.55c.05,1.7-.22,3.11-.82,4.24s-1.51,1.93-2.72,2.43c-1.21.49-2.5.81-3.87.95s-3.02.15-4.94.04v-40.08c0-3.57,5.73-5.49,17.2-5.76,16.24-.44,24.39,4.86,24.44,15.88h.01Z"/>
    <path class="st0" d="M465.86,36.53v.33c.71,6.37-1.45,9.55-6.5,9.55-.6,0-1.6,0-3-.04-1.4-.03-2.44-.04-3.13-.04s-1.63.07-2.84.21-2.14.34-2.8.62c-.66.28-1.4.7-2.22,1.28-.82.58-1.45,1.28-1.89,2.1s-.81,1.89-1.11,3.21-.45,2.8-.45,4.44.14,2.99.41,4.2.62,2.22,1.03,3.04,1.03,1.52,1.85,2.1,1.65,1.03,2.47,1.36,1.93.58,3.33.74c1.4.16,2.69.26,3.87.29s2.73.04,4.65.04c.77,0,1.44.1,2.02.29s1.07.44,1.48.74c.41.3.77.69,1.07,1.15.3.47.53.93.7,1.4.16.47.29.97.37,1.52.08.55.12,1.06.12,1.52s-.01.95-.04,1.44c-.03.49-.06.91-.08,1.23-.03.33-.1.8-.21,1.4-2.25.27-4.27.48-6.05.62s-3.99.16-6.62.08-4.94-.36-6.91-.82c-1.98-.47-4.03-1.23-6.17-2.3s-3.91-2.44-5.31-4.11-2.55-3.87-3.46-6.58c-.91-2.72-1.36-5.83-1.36-9.34,0-18.38,11.25-25.76,33.74-22.14.77.11,1.78.28,3.04.49v-.02Z"/>
  </g>
  <g>
    <g>
      <path class="st2" d="M538.76,69.53l-26.04-51.1-25.33,49.7c1.78,2.02,2.86,4.67,2.86,7.57,0,1.77-.4,3.44-1.11,4.93h4.3l5.69-11.11,2.27-4.46h22.65l2.27,4.46,5.69,11.11h12.44l-5.69-11.11h0ZM507.06,53.97l5.66-11.1,5.66,11.1h-11.32,0Z"/>
      <rect class="st2" x="549.78" y="18.43" width="11.11" height="62.21"/>
    </g>
    <path class="st2" d="M471.49,75.71h0c0-4.03,3.26-7.29,7.29-7.29h0c4.03,0,7.29,3.26,7.29,7.29h0c0,4.03-3.26,7.29-7.29,7.29h0c-4.03,0-7.29-3.26-7.29-7.29Z"/>
  </g>
  <g>
    <path class="st1" d="M138.94,87.49l-5.46.03h0c.67,2.22,4.08,5.69,4.66,7.89.18.69.21,1.56-.21,2.15-2.86,2.33-5.65,6.41-8.52,8.54-.81.6-1.51.66-2.5.34-1.9-.63-4.95-3.19-6.98-4.2-1.44-.71-1.58-.79-3.12-.31-1.4.43-5.6,2.13-6.75,2.86-.49.31-.79.57-1.05,1.11-1.17,2.45-1.22,6.84-2.39,9.18-.31.63-1.13,1.24-1.84,1.3-3.71-.23-7.9.37-11.56.03-1.01-.09-1.82-.49-2.26-1.47-.67-1.5-1.03-3.81-1.46-5.85-.16-.77-.34-1.51-.54-2.15,0-.01,0-.03-.01-.04-.45-1.43-2.07-2.13-3.42-1.49l-4.19,1.99-21.04,9.97c-2.33,1.1-4.45.24-5.66-.94-1.21-1.17-2.14-3.27-1.11-5.63,0,0,9.91-21.87,10.24-22.52.57-1.13.73-1.53.42-2.84-.26-1.1-2.36-6.08-2.96-7.03-.31-.49-.57-.79-1.11-1.05-2.45-1.17-6.84-1.23-9.18-2.39-.63-.31-1.24-1.13-1.3-1.84.23-3.71-.37-7.91-.03-11.56.09-1.01.49-1.82,1.46-2.26,2.06-.92,5.66-1.26,8-2,1.55-.49,1.73-.55,2.48-2.03.63-1.24,2.44-5.33,2.69-6.53.15-.72.14-1.21-.07-1.92-.67-2.23-4.09-5.79-4.66-7.89-.18-.68-.21-1.57.21-2.16,2.86-2.33,5.65-6.41,8.51-8.54.84-.62,1.48-.64,2.5-.33,2.01.6,5.33,3.5,7.49,4.47,1.17.53,1.44.4,2.61.04.37-.11.96-.32,1.64-.59v-5.26l-2.78,1.11c-5.42-2.8-9.25-7.62-15.19-2.57-2.06,1.75-8.71,8.3-9.5,10.5-1.75,4.8,2.32,8.38,4.31,12.33l-2.01,4.92c-4.82,1.45-11.03,1.22-12.4,7.26v14.12c1.44,6.14,7.73,5.71,12.56,7.39l1.87,4.68c-.28.54-.58,1.07-.89,1.58-.45.75-3.86,7.91-3.86,7.91l-5.68,13.01c-1.69,3.88-.82,8.3,2.22,11.25,1.9,1.84,4.37,2.85,6.97,2.85h0c1.5,0,2.96-.33,4.34-.98l22.68-10.75c.93,4.28,1.61,8.75,6.64,9.94h14.12c6.03-1.4,5.8-7.56,7.25-12.4l4.92-2.01c4.57,2.26,8.38,6.94,13.77,3.59,1.6-.99,9.22-8.63,10.17-10.22,2.92-4.9-.7-8.51-3.05-12.57v-.02Z"/>
    <g>
      <rect class="st2" x="89.63" y="9.84" width="18.61" height="72.05" rx="6.36" ry="6.36"/>
      <rect class="st2" x="117.82" y="33.86" width="18.61" height="48.03" rx="6.36" ry="6.36"/>
      <rect class="st2" x="146.02" y="57.87" width="18.61" height="24.02" rx="6.36" ry="6.36"/>
    </g>
  </g>
</svg>